<svg width="48" height="48" viewBox="0 0 48 48" fill="none" xmlns="http://www.w3.org/2000/svg">
<path d="M18.375 25.375H22.625V21.325H25.375V25.375H29.625V16.675L24 12.9L18.375 16.675V25.375ZM24 45.2C18.25 40.35 13.9459 35.9875 11.0875 32.1125C8.22922 28.2375 6.80005 24.2948 6.80005 20.2843C6.80005 14.9614 8.53343 10.7207 12.0002 7.56245C15.467 4.40415 19.4669 2.825 24 2.825C28.5332 2.825 32.5331 4.40415 35.9999 7.56245C39.4667 10.7207 41.2 14.9614 41.2 20.2843C41.2 24.2948 39.7709 28.2375 36.9125 32.1125C34.0542 35.9875 29.75 40.35 24 45.2Z" fill="black"/>
</svg>
