<svg width="48" height="48" viewBox="0 0 48 48" fill="none" xmlns="http://www.w3.org/2000/svg">
<path d="M8.85005 41.25C7.15212 41.25 5.7193 40.6662 4.5516 39.4985C3.3839 38.3308 2.80005 36.8979 2.80005 35.2V12.8C2.80005 11.1021 3.3839 9.66925 4.5516 8.50155C5.7193 7.33385 7.15212 6.75 8.85005 6.75H39.15C40.848 6.75 42.2808 7.33385 43.4485 8.50155C44.6162 9.66925 45.2 11.1021 45.2 12.8V35.2C45.2 36.8979 44.6162 38.3308 43.4485 39.4985C42.2808 40.6662 40.848 41.25 39.15 41.25H8.85005ZM24 27.975L39.15 18.1V12.8L24 22.65L8.85005 12.8V18.1L24 27.975Z" fill="black"/>
</svg>
