<svg width="48" height="48" viewBox="0 0 48 48" fill="none" xmlns="http://www.w3.org/2000/svg">
<path d="M13.2065 46.025C12.321 46.025 11.5527 45.6995 10.9016 45.0485C10.2506 44.3974 9.92505 43.6291 9.92505 42.7435V5.25651C9.92505 4.37094 10.2506 3.60262 10.9016 2.95156C11.5527 2.30052 12.321 1.97501 13.2065 1.97501H34.7935C35.6791 1.97501 36.4474 2.30052 37.0985 2.95156C37.7495 3.60262 38.075 4.37094 38.075 5.25651V42.7435C38.075 43.6291 37.7495 44.3974 37.0985 45.0485C36.4474 45.6995 35.6791 46.025 34.7935 46.025H13.2065ZM13.2065 38.3185H34.7935V9.68151H13.2065V38.3185Z" fill="black"/>
</svg>
